<svg xmlns="http://www.w3.org/2000/svg" viewBox="0 0 32 32" fill="none">
  <defs>
    <linearGradient id="bg" x1="4" y1="4" x2="28" y2="28" gradientUnits="userSpaceOnUse">
      <stop stop-color="#8b5cf6"/>
      <stop offset="1" stop-color="#7c3aed"/>
    </linearGradient>
  </defs>
  <rect width="32" height="32" rx="8" fill="url(#bg)"/>
  <g transform="translate(4 4)" stroke="#fff" stroke-width="2" stroke-linecap="round" stroke-linejoin="round">
    <path d="m15 12-8.373 8.373a1 1 0 1 1-3-3L12 9"/>
    <path d="m18 15 4-4"/>
    <path d="m21.5 11.5-1.914-1.914A2 2 0 0 1 19 8.172V7l-2.26-2.26a6 6 0 0 0-4.202-1.756l-.44-.1A2 2 0 0 0 9.172 3H5a2 2 0 0 0-2 2v3.172a2 2 0 0 0 .586 1.414L8 12"/>
  </g>
</svg>
